# xmcd CD database file
#
# Track frame offsets:
#	150
#	21769
#	34593
#	53367
#	74147
#	88052
#	109358
#	128023
#	148079
#	166220
#	179484
#	200624
#	221281
#	237327
#	254171
#	273589
#	291340
#
# Disc length: 4316 seconds
#
# Revision: 3
# Processed by: cddbd v1.5.2PL0 Copyright (c) Steve Scherf et al.
# Submitted via: CDex 1.79
#
DISCID=0b10da11
DTITLE=Kevin Fowler - Live At Billy Bob's Texas
DYEAR=2002
DGENRE=Country
TTITLE0=100% Texan
TTITLE1=Butterbean
TTITLE2=There's A Fool Born Everyday
TTITLE3=If These Old Walls Could Talk
TTITLE4=Ball and Chain
TTITLE5=The Lord Loves The Drinkin' Man
TTITLE6=High On The Hog
TTITLE7=Not Lovin' Anymore
TTITLE8=Speak Of The Devil
TTITLE9=Tall Drink Of Water
TTITLE10=J.O.B.
TTITLE11=Penny For Your Thoughts
TTITLE12=Is Anybody Going To San Antone?
TTITLE13=True Love
TTITLE14=All The Tequila In Tijuana
TTITLE15=Read Between The Lines
TTITLE16=Beer, Bait And Ammo
EXTD=YEAR: 2002
EXTT0=
EXTT1=
EXTT2=
EXTT3=
EXTT4=
EXTT5=
EXTT6=
EXTT7=
EXTT8=
EXTT9=
EXTT10=
EXTT11=
EXTT12=
EXTT13=
EXTT14=
EXTT15=
EXTT16=
PLAYORDER=
